HIERARCHY
ROOT Hips
{
  OFFSET 5.84602e-005 68.8428 3.50346
  CHANNELS 6 Xposition Yposition Zposition Zrotation Xrotation Yrotation
  JOINT Spine
  {
    OFFSET 0 8.597 -4.6522
    CHANNELS 3 Zrotation Xrotation Yrotation
    JOINT Spine1
    {
      OFFSET 0 7.8454 0.4098
      CHANNELS 3 Zrotation Xrotation Yrotation
      JOINT Spine2
      {
        OFFSET 0 9.7078 -2.1609
        CHANNELS 3 Zrotation Xrotation Yrotation
        JOINT Neck
        {
          OFFSET 0 21.8761 -0.4549
          CHANNELS 3 Zrotation Xrotation Yrotation
          JOINT Head
          {
            OFFSET 0 12.3537 3.3602
            CHANNELS 3 Zrotation Xrotation Yrotation
            End Site
            {
              OFFSET 0.0001 18.9506 0.5657
            }
          }
        }
        JOINT LeftShoulder
        {
          OFFSET 2.2086 21.1115 7.2329
          CHANNELS 3 Zrotation Xrotation Yrotation
          JOINT LeftArm
          {
            OFFSET 13.1193 3.0282 -4.8998
            CHANNELS 3 Zrotation Xrotation Yrotation
            JOINT LeftForeArm
            {
              OFFSET 27.4081 -0.0973053 -0.2375
              CHANNELS 3 Zrotation Xrotation Yrotation
              JOINT LeftHand
              {
                OFFSET 22.8641 0.0662994 -0.1369
                CHANNELS 3 Zrotation Xrotation Yrotation
                JOINT LeftHandIndex1
                {
                  OFFSET 8.8614 0.775009 2.4612
                  CHANNELS 3 Zrotation Xrotation Yrotation
                  JOINT LeftHandIndex2
                  {
                    OFFSET 3.3146 -0.808304 0.5841
                    CHANNELS 3 Zrotation Xrotation Yrotation
                    JOINT LeftHandIndex3
                    {
                      OFFSET 2.2628 -0.552002 0.3989
                      CHANNELS 3 Zrotation Xrotation Yrotation
                      End Site
                      {
                        OFFSET 1.6102 -0.4807 0.2612
                      }
                    }
                  }
                }
                JOINT LeftHandMiddle1
                {
                  OFFSET 8.9937 0.895004 0.2143
                  CHANNELS 3 Zrotation Xrotation Yrotation
                  JOINT LeftHandMiddle2
                  {
                    OFFSET 4.0984 0.0113983 -0.0242
                    CHANNELS 3 Zrotation Xrotation Yrotation
                    JOINT LeftHandMiddle3
                    {
                      OFFSET 2.2716 0.00689697 -0.0138001
                      CHANNELS 3 Zrotation Xrotation Yrotation
                      End Site
                      {
                        OFFSET 2.0404 -0.1441 0.0027
                      }
                    }
                  }
                }
                JOINT LeftHandRing1
                {
                  OFFSET 8.5234 0.597198 -2.0164
                  CHANNELS 3 Zrotation Xrotation Yrotation
                  JOINT LeftHandRing2
                  {
                    OFFSET 3.7188 -0.188293 -0.2328
                    CHANNELS 3 Zrotation Xrotation Yrotation
                    JOINT LeftHandRing3
                    {
                      OFFSET 2.1191 -0.106598 -0.1332
                      CHANNELS 3 Zrotation Xrotation Yrotation
                      End Site
                      {
                        OFFSET 1.8737 -0.2304 -0.0886
                      }
                    }
                  }
                }
                JOINT LeftHandPinky1
                {
                  OFFSET 7.9094 -0.601089 -3.4825
                  CHANNELS 3 Zrotation Xrotation Yrotation
                  JOINT LeftHandPinky2
                  {
                    OFFSET 2.2874 -0.477005 -0.6314
                    CHANNELS 3 Zrotation Xrotation Yrotation
                    JOINT LeftHandPinky3
                    {
                      OFFSET 1.6774 -0.349396 -0.4633
                      CHANNELS 3 Zrotation Xrotation Yrotation
                      End Site
                      {
                        OFFSET 1.4888 -0.4091 -0.3416
                      }
                    }
                  }
                }
                JOINT LeftHandThumb1
                {
                  OFFSET 1.833 -1.3875 1.3896
                  CHANNELS 3 Zrotation Xrotation Yrotation
                  JOINT LeftHandThumb2
                  {
                    OFFSET 3.4129 -1.121 2.5732
                    CHANNELS 3 Zrotation Xrotation Yrotation
                    JOINT LeftHandThumb3
                    {
                      OFFSET 2.2474 -0.804199 1.6192
                      CHANNELS 3 Zrotation Xrotation Yrotation
                      End Site
                      {
                        OFFSET 1.6527 -0.5689 1.1317
                      }
                    }
                  }
                }
              }
            }
          }
        }
        JOINT RightShoulder
        {
          OFFSET -2.2086 21.1115 7.2329
          CHANNELS 3 Zrotation Xrotation Yrotation
          JOINT RightArm
          {
            OFFSET -13.1216 3.0287 -4.9007
            CHANNELS 3 Zrotation Xrotation Yrotation
            JOINT RightForeArm
            {
              OFFSET -27.4081 -0.0973053 -0.2375
              CHANNELS 3 Zrotation Xrotation Yrotation
              JOINT RightHand
              {
                OFFSET -22.8641 0.0664063 -0.1369
                CHANNELS 3 Zrotation Xrotation Yrotation
                JOINT RightHandIndex1
                {
                  OFFSET -8.8614 0.774994 2.4612
                  CHANNELS 3 Zrotation Xrotation Yrotation
                  JOINT RightHandIndex2
                  {
                    OFFSET -3.3146 -0.808304 0.5841
                    CHANNELS 3 Zrotation Xrotation Yrotation
                    JOINT RightHandIndex3
                    {
                      OFFSET -2.2628 -0.552002 0.3989
                      CHANNELS 3 Zrotation Xrotation Yrotation
                      End Site
                      {
                        OFFSET -1.6102 -0.4807 0.2612
                      }
                    }
                  }
                }
                JOINT RightHandMiddle1
                {
                  OFFSET -8.9937 0.894989 0.2143
                  CHANNELS 3 Zrotation Xrotation Yrotation
                  JOINT RightHandMiddle2
                  {
                    OFFSET -4.0984 0.0113983 -0.0242
                    CHANNELS 3 Zrotation Xrotation Yrotation
                    JOINT RightHandMiddle3
                    {
                      OFFSET -2.2716 0.00691223 -0.0138001
                      CHANNELS 3 Zrotation Xrotation Yrotation
                      End Site
                      {
                        OFFSET -2.0404 -0.1441 0.0027
                      }
                    }
                  }
                }
                JOINT RightHandRing1
                {
                  OFFSET -8.5234 0.597198 -2.0164
                  CHANNELS 3 Zrotation Xrotation Yrotation
                  JOINT RightHandRing2
                  {
                    OFFSET -3.7188 -0.188309 -0.2328
                    CHANNELS 3 Zrotation Xrotation Yrotation
                    JOINT RightHandRing3
                    {
                      OFFSET -2.1191 -0.106598 -0.1332
                      CHANNELS 3 Zrotation Xrotation Yrotation
                      End Site
                      {
                        OFFSET -1.8737 -0.2304 -0.0886
                      }
                    }
                  }
                }
                JOINT RightHandPinky1
                {
                  OFFSET -7.9094 -0.601105 -3.4825
                  CHANNELS 3 Zrotation Xrotation Yrotation
                  JOINT RightHandPinky2
                  {
                    OFFSET -2.2874 -0.477005 -0.6314
                    CHANNELS 3 Zrotation Xrotation Yrotation
                    JOINT RightHandPinky3
                    {
                      OFFSET -1.6774 -0.349396 -0.4633
                      CHANNELS 3 Zrotation Xrotation Yrotation
                      End Site
                      {
                        OFFSET -1.4888 -0.4091 -0.3416
                      }
                    }
                  }
                }
                JOINT RightHandThumb1
                {
                  OFFSET -1.833 -1.38751 1.3896
                  CHANNELS 3 Zrotation Xrotation Yrotation
                  JOINT RightHandThumb2
                  {
                    OFFSET -3.41299 -1.12099 2.5732
                    CHANNELS 3 Zrotation Xrotation Yrotation
                    JOINT RightHandThumb3
                    {
                      OFFSET -2.24741 -0.804108 1.6192
                      CHANNELS 3 Zrotation Xrotation Yrotation
                      End Site
                      {
                        OFFSET -1.6527 -0.5689 1.1317
                      }
                    }
                  }
                }
              }
            }
          }
        }
      }
    }
  }
  JOINT RightUpLeg
  {
    OFFSET -9.1966 3.8861 -0.7581
    CHANNELS 3 Zrotation Xrotation Yrotation
    JOINT RightLeg
    {
      OFFSET -0.7359 -41.0265 0
      CHANNELS 3 Zrotation Xrotation Yrotation
      JOINT RightFoot
      {
        OFFSET 0 -40.2855 0
        CHANNELS 3 Zrotation Xrotation Yrotation
        JOINT RightToeBase
        {
          OFFSET 0 -5.6122 11.7359
          CHANNELS 3 Zrotation Xrotation Yrotation
          End Site
          {
            OFFSET 0 0 7.8731
          }
        }
      }
    }
  }
  JOINT LeftUpLeg
  {
    OFFSET 9.1965 3.8864 -0.7581
    CHANNELS 3 Zrotation Xrotation Yrotation
    JOINT LeftLeg
    {
      OFFSET 0.7359 -41.0268 0
      CHANNELS 3 Zrotation Xrotation Yrotation
      JOINT LeftFoot
      {
        OFFSET 0 -40.2855 0
        CHANNELS 3 Zrotation Xrotation Yrotation
        JOINT LeftToeBase
        {
          OFFSET 0 -5.6122 11.7359
          CHANNELS 3 Zrotation Xrotation Yrotation
          End Site
          {
            OFFSET 0 0 7.8731
          }
        }
      }
    }
  }
}
MOTION
Frames:	6
Frame Time:	0.0333333
0.00572144 23.1451 -40.6913 0.665365 -80.127 -179.195 1.1573 5.07329 -0.52255 2.37525 10.1346 -1.15516 2.37525 10.1347 -1.15516 12.3298 24.9021 -5.17729 7.75329e-007 7.79038 2.14408e-006 -6.33213 -2.60356 8.25237 1.37592 -2.52231 -53.911 12.104 -13.6488 -31.789 69.4178 -1.92067 2.44606 -3.57027e-007 3.02324e-007 -4.89159e-007 -1.57007e-007 -1.41796e-007 -2.75233e-008 3.14014e-007 2.83591e-007 5.50467e-008 -3.57027e-007 3.02324e-007 -4.89159e-007 -0.0146299 -8.90769e-005 -9.19704e-007 3.14012e-007 2.83584e-007 5.50826e-008 -3.57027e-007 3.02324e-007 -4.89159e-007 -0.0187682 -0.00117637 5.78221e-005 6.6944e-007 -1.89232e-008 5.442e-007 -3.57027e-007 3.02324e-007 -4.89159e-007 -0.0122937 -0.0032543 0.000684301 3.14016e-007 2.83583e-007 5.50683e-008 -3.57027e-007 3.02324e-007 -4.89159e-007 -1.57007e-007 -1.41796e-007 -2.75233e-008 3.14014e-007 2.83591e-007 5.50467e-008 1.66653 -9.98671 -2.16207 -1.22611 -1.99702 56.8331 -13.9796 -14.8713 39.7161 -64.5945 4.95008 -1.85887 1.43452e-031 2.5842e-015 -3.18055e-015 -1.59028e-015 2.98177e-015 -0 1.59028e-015 3.77691e-015 1.59028e-015 1.43452e-031 2.5842e-015 -3.18055e-015 0.0150139 -9.21404e-005 -8.91525e-006 -1.59028e-015 -2.5842e-015 -0 1.43452e-031 2.5842e-015 -3.18055e-015 0.0190251 -0.00119336 -5.50401e-005 2.81298e-007 -6.47218e-007 -5.9659e-006 1.43452e-031 2.5842e-015 -3.18055e-015 0.0122704 -0.00324789 -0.000671913 -1.10348e-031 -3.97569e-015 -1.59028e-015 1.43452e-031 2.5842e-015 -3.18055e-015 -1.59028e-015 2.98177e-015 -0 1.59028e-015 3.77691e-015 1.59028e-015 -129.774 -57.831 -144.56 -172.171 55.2602 169.715 -9.32093 49.9229 1.83007 -8.25221e-007 -2.12631e-006 2.77622e-007 129.78 -57.8473 144.546 172.202 55.258 -169.759 9.31819 49.9153 -1.83482 1.99715e-006 -1.73136e-007 6.59851e-007 
0.00651183 22.9146 -40.2098 0.791221 -80.929 -179.059 1.05712 4.64734 -0.470269 2.16336 9.28541 -1.03192 2.16336 9.28542 -1.03192 12.3228 25.2938 -5.2713 1.41789e-006 7.84258 -1.54824e-006 -6.32695 -2.39727 7.53794 1.37592 -2.52232 -53.911 12.104 -13.6488 -31.789 68.6489 -1.77986 2.23569 -6.62086e-032 -4.77083e-015 -7.95139e-016 5.24151e-032 -3.77691e-015 7.95139e-016 -1.59028e-015 -4.57205e-015 -0 -6.62086e-032 -4.77083e-015 -7.95139e-016 -0.0146332 -8.87057e-005 -1.17067e-006 3.7558e-007 -3.57459e-007 5.2714e-007 -6.62086e-032 -4.77083e-015 -7.95139e-016 -0.0187565 -0.00117582 6.78682e-005 -3.18055e-015 -2.18663e-015 -2.38542e-015 -6.62086e-032 -4.77083e-015 -7.95139e-016 -0.012303 -0.00325736 0.000688989 3.75792e-007 -3.57721e-007 5.27196e-007 -6.62086e-032 -4.77083e-015 -7.95139e-016 5.24151e-032 -3.77691e-015 7.95139e-016 -1.59028e-015 -4.57205e-015 -0 2.04756 -9.18896 -1.91147 -1.23753 -2.04002 56.5959 -13.8339 -14.7627 39.0716 -64.2268 4.54285 -1.72246 4.77083e-015 2.78299e-015 -6.36111e-015 6.36111e-015 2.78299e-015 -1.11319e-014 6.36111e-015 2.98177e-015 -7.95139e-015 4.77083e-015 2.78299e-015 -6.36111e-015 0.0149985 -9.05243e-005 -1.44611e-006 7.95139e-015 3.97569e-016 -7.95139e-015 4.77083e-015 2.78299e-015 -6.36111e-015 0.0190081 -0.00119197 -5.69789e-005 1.59028e-015 -2.5842e-015 -0 4.77083e-015 2.78299e-015 -6.36111e-015 0.0122644 -0.00324604 -0.000668558 1.59028e-015 1.59028e-015 -3.18055e-015 4.77083e-015 2.78299e-015 -6.36111e-015 6.36111e-015 2.78299e-015 -1.11319e-014 6.36111e-015 2.98177e-015 -7.95139e-015 -131.886 -56.8224 -146.737 -172.265 54.4987 169.727 -9.27314 49.9336 1.76929 -3.06825e-007 7.59149e-006 -6.07726e-007 131.893 -56.8375 146.724 172.293 54.4955 -169.768 9.2702 49.9256 -1.77401 1.66218e-006 5.53255e-009 -3.37152e-007 
0.0073345 22.685 -39.7297 0.94244 -81.7309 -178.897 0.956883 4.22169 -0.421657 1.95297 8.43559 -0.917921 1.95297 8.43557 -0.917921 12.3162 25.6837 -5.36518 1.90157e-006 7.89476 1.94628e-006 -6.31921 -2.19111 6.82365 1.37592 -2.5223 -53.911 12.104 -13.6488 -31.789 67.8806 -1.63624 2.02728 3.97389e-007 -4.13532e-007 5.63124e-007 1.59028e-015 2.18663e-015 2.38542e-015 1.59028e-015 9.93923e-016 -0 3.97389e-007 -4.13532e-007 5.63124e-007 -0.0146096 -9.0508e-005 2.29326e-006 3.18055e-015 -1.78906e-015 -0 3.97389e-007 -4.13532e-007 5.63124e-007 -0.0187044 -0.00117217 5.85206e-005 1.59028e-015 2.98177e-015 -0 3.97389e-007 -4.13532e-007 5.63124e-007 -0.0122832 -0.00325093 0.000674724 6.36111e-015 -7.95139e-016 1.59028e-015 3.97389e-007 -4.13532e-007 5.63124e-007 1.59028e-015 2.18663e-015 2.38542e-015 1.59028e-015 9.93923e-016 -0 2.42423 -8.38966 -1.6668 -1.24911 -2.08299 56.3587 -13.687 -14.6559 38.4273 -63.8583 4.13649 -1.58351 1.59028e-015 3.12092e-014 -0 4.91757e-008 -5.99879e-007 4.66343e-008 5.46221e-031 -6.55989e-015 4.77083e-015 1.59028e-015 3.12092e-014 -0 0.0150047 -9.18355e-005 2.49739e-006 1.59028e-015 -4.37326e-015 3.18055e-015 1.59028e-015 3.12092e-014 -0 0.0190133 -0.00119189 -5.95856e-005 1.59028e-015 1.98785e-016 1.59028e-015 1.59028e-015 3.12092e-014 -0 0.0122279 -0.0032374 -0.000665735 -8.27607e-032 2.98177e-015 1.59028e-015 1.59028e-015 3.12092e-014 -0 4.91757e-008 -5.99879e-007 4.66343e-008 5.46221e-031 -6.55989e-015 4.77083e-015 -133.876 -55.7748 -148.792 -172.356 53.7372 169.735 -9.22419 49.9443 1.70714 -3.3266e-006 4.26822e-009 6.75866e-007 133.883 -55.7886 148.78 172.381 53.7328 -169.772 9.22106 49.9356 -1.71183 1.79662e-006 -6.64999e-008 6.15055e-008 
0.00819088 22.4562 -39.2508 1.12716 -82.5326 -178.702 0.856563 3.79592 -0.376723 1.74394 7.58569 -0.813104 1.74394 7.58565 -0.813103 12.3199 26.1723 -5.48309 3.51771e-006 7.98497 4.32403e-007 -6.30888 -1.98507 6.10957 1.37593 -2.5223 -53.911 12.104 -13.6488 -31.7889 67.1131 -1.48989 1.82084 1.59028e-015 -3.57812e-015 -7.95139e-016 1.59028e-015 -1.98785e-015 7.95139e-016 3.18055e-015 -3.57812e-015 -7.95139e-016 1.59028e-015 -3.57812e-015 -7.95139e-016 -0.0146162 -8.86563e-005 -2.36874e-006 1.59028e-015 -2.78299e-015 -1.59028e-015 1.59028e-015 -3.57812e-015 -7.95139e-016 -0.0187 -0.00117242 5.89268e-005 5.51738e-033 -1.98785e-016 1.59028e-015 1.59028e-015 -3.57812e-015 -7.95139e-016 -0.0122552 -0.00324634 0.00068133 4.17667e-007 -4.71035e-007 5.96937e-007 1.59028e-015 -3.57812e-015 -7.95139e-016 1.59028e-015 -1.98785e-015 7.95139e-016 3.18055e-015 -3.57812e-015 -7.95139e-016 2.79658 -7.58902 -1.42799 -1.26087 -2.12588 56.1214 -13.539 -14.5505 37.783 -63.489 3.73111 -1.44202 3.31043e-032 -1.19271e-015 1.59028e-015 2.76293e-007 -6.49405e-007 -5.95995e-006 1.13011e-007 -3.72109e-007 -3.6129e-006 3.31043e-032 -1.19271e-015 1.59028e-015 0.0149594 -9.10213e-005 -8.82994e-006 -3.18055e-015 -1.59028e-015 -0 3.31043e-032 -1.19271e-015 1.59028e-015 0.0189919 -0.00119002 -5.16405e-005 7.95139e-015 -3.57812e-015 -6.36111e-015 3.31043e-032 -1.19271e-015 1.59028e-015 0.0122887 -0.0032528 -0.00067503 1.59028e-015 -3.77691e-015 3.18055e-015 3.31043e-032 -1.19271e-015 1.59028e-015 2.76293e-007 -6.49405e-007 -5.95995e-006 1.13011e-007 -3.72109e-007 -3.6129e-006 -135.748 -54.6922 -150.732 -172.445 52.9756 169.738 -9.17403 49.9549 1.64355 -3.67503e-006 7.56456e-006 -1.02867e-007 135.754 -54.7046 150.721 172.467 52.97 -169.773 9.17074 49.9456 -1.64825 7.15623e-007 -9.55492e-007 -1.21924e-006 
0.00907841 22.2282 -38.7731 1.35739 -83.3339 -178.462 0.75616 3.37039 -0.33546 1.53611 6.73588 -0.7174 1.53611 6.7359 -0.717401 12.3054 26.4623 -5.55355 -4.26305e-006 7.99915 -3.59688e-007 -6.296 -1.77921 5.39572 1.37593 -2.52231 -53.911 12.104 -13.6488 -31.7889 66.3465 -1.34081 1.6165 -1.11577e-006 1.27787e-006 6.55468e-008 8.10484e-008 1.19682e-006 1.24314e-007 -8.77354e-007 3.59992e-007 -1.2997e-008 -1.11577e-006 1.27787e-006 6.55468e-008 -0.0146126 -8.76974e-005 -5.70361e-006 -8.7734e-007 3.59993e-007 -1.29504e-008 -1.11577e-006 1.27787e-006 6.55468e-008 -0.0187473 -0.00117401 5.89378e-005 -8.77337e-007 3.59995e-007 -1.29292e-008 -1.11577e-006 1.27787e-006 6.55468e-008 -0.0122295 -0.0032373 0.000675516 -8.77341e-007 3.60001e-007 -1.29344e-008 -1.11577e-006 1.27787e-006 6.55468e-008 8.10484e-008 1.19682e-006 1.24314e-007 -8.77354e-007 3.59992e-007 -1.2997e-008 3.16479 -6.78719 -1.19493 -1.2728 -2.16875 55.8842 -13.3898 -14.4469 37.139 -63.119 3.3267 -1.298 -4.77083e-015 4.17448e-015 -0 -3.18055e-015 4.77083e-015 -0 -3.18055e-015 4.77083e-015 1.59028e-015 -4.77083e-015 4.17448e-015 -0 0.0149909 -9.25982e-005 -9.651e-006 1.10567e-007 -3.72287e-007 -3.61517e-006 -4.77083e-015 4.17448e-015 -0 0.0190187 -0.00119162 -6.59465e-005 -1.10009e-007 3.72272e-007 3.61515e-006 -4.77083e-015 4.17448e-015 -0 0.0123379 -0.00326569 -0.00068945 1.10814e-007 -3.71791e-007 -3.6151e-006 -4.77083e-015 4.17448e-015 -0 -3.18055e-015 4.77083e-015 -0 -3.18055e-015 4.77083e-015 1.59028e-015 -137.51 -53.5782 -152.564 -172.531 52.214 169.737 -9.12268 49.9653 1.57853 2.01701e-007 1.03183e-007 5.98771e-007 137.516 -53.5894 152.553 172.551 52.2074 -169.769 9.11921 49.9555 -1.58322 3.97569e-015 6.36111e-015 2.38542e-015 
0.0100007 22.0009 -38.2968 1.65176 -84.1347 -178.157 0.655665 2.94506 -0.297864 1.32932 5.88665 -0.630757 1.32932 5.88666 -0.630757 12.1926 25.7206 -5.37433 2.44342e-006 7.61435 9.19044e-007 -6.28056 -1.57364 4.68215 1.37591 -2.52233 -53.911 12.104 -13.6488 -31.789 65.5807 -1.1891 1.41424 -1.59028e-015 -1.98785e-016 -1.59028e-015 -6.52143e-007 -4.96575e-008 9.65501e-006 3.20656e-007 2.77919e-007 4.33077e-008 -1.59028e-015 -1.98785e-016 -1.59028e-015 -0.0145974 -8.75795e-005 2.96709e-006 3.20654e-007 2.77914e-007 4.33429e-008 -1.59028e-015 -1.98785e-016 -1.59028e-015 -0.0187593 -0.00117925 7.69112e-005 3.20654e-007 2.77912e-007 4.335e-008 -1.59028e-015 -1.98785e-016 -1.59028e-015 -0.0123415 -0.00326804 0.000694554 -1.45361e-007 3.32403e-007 5.90983e-006 -1.59028e-015 -1.98785e-016 -1.59028e-015 -6.52143e-007 -4.96575e-008 9.65501e-006 3.20656e-007 2.77919e-007 4.33077e-008 3.52894 -5.98432 -0.967533 -1.28491 -2.21157 55.6469 -13.2396 -14.3449 36.4952 -62.7481 2.92331 -1.15145 4.77083e-015 2.5842e-015 3.18055e-015 1.59028e-015 2.98177e-015 -0 1.59028e-015 2.78299e-015 -0 4.77083e-015 2.5842e-015 3.18055e-015 0.014982 -9.13423e-005 5.33657e-007 -1.59028e-015 -6.16232e-015 -0 4.77083e-015 2.5842e-015 3.18055e-015 0.0190033 -0.0011922 -6.16748e-005 1.59028e-015 -3.57812e-015 -0 4.77083e-015 2.5842e-015 3.18055e-015 0.0122632 -0.00324605 -0.000676143 -1.59028e-015 3.97569e-016 3.18055e-015 4.77083e-015 2.5842e-015 3.18055e-015 1.59028e-015 2.98177e-015 -0 1.59028e-015 2.78299e-015 -0 -139.168 -52.4363 -154.294 -172.615 51.4526 169.732 -9.07007 49.9759 1.512 -1.79881e-006 -6.93238e-008 -6.08601e-008 139.173 -52.4462 154.284 172.632 51.4449 -169.761 9.06641 49.9654 -1.51669 -1.59028e-015 -6.36111e-015 -1.59028e-015 
